<?xml version="1.0" encoding="UTF-8"?>
<svg id="Capa_2" data-name="Capa 2" xmlns="http://www.w3.org/2000/svg" viewBox="0 0 1170 2532">
  <defs>
    <style>
      .cls-1 {
        fill: none;
      }

      .cls-1, .cls-2 {
        stroke-width: 0px;
      }

      .cls-2 {
        fill: #fff;
      }
    </style>
  </defs>
  <g id="Capa_1-2" data-name="Capa 1">
    <path class="cls-2" d="M124.41,230.18c3.44,4.42,5.17,9.48,5.17,15.15,0,8.2-2.86,14.69-8.59,19.48-5.73,4.8-13.71,7.19-23.95,7.19h-45.67v-98.05h44.13c9.96,0,17.76,2.28,23.39,6.84,5.63,4.56,8.45,10.75,8.45,18.58,0,5.77-1.51,10.57-4.54,14.39-3.03,3.82-7.05,6.47-12.08,7.96,5.68,1.21,10.24,4.03,13.69,8.45M75.25,213.63h15.64c3.91,0,6.91-.86,9.01-2.58,2.09-1.72,3.14-4.26,3.14-7.61s-1.05-5.91-3.14-7.68c-2.1-1.77-5.1-2.65-9.01-2.65h-15.64v20.53ZM102.13,250.01c2.19-1.82,3.28-4.45,3.28-7.89s-1.14-6.15-3.42-8.1c-2.28-1.96-5.42-2.93-9.43-2.93h-17.32v21.65h17.6c4,0,7.1-.91,9.29-2.72"/>
    <path class="cls-2" d="M158.28,268.24c-6.1-3.26-10.89-7.91-14.39-13.97-3.49-6.05-5.24-13.13-5.24-21.23s1.77-15.06,5.31-21.16c3.54-6.1,8.38-10.78,14.53-14.04,6.15-3.26,13.03-4.89,20.67-4.89s14.53,1.63,20.67,4.89c6.15,3.26,10.99,7.94,14.52,14.04,3.54,6.1,5.31,13.15,5.31,21.16s-1.79,15.06-5.38,21.16c-3.59,6.1-8.47,10.78-14.66,14.04-6.19,3.26-13.11,4.89-20.74,4.89s-14.5-1.63-20.6-4.89M190.54,247.43c3.21-3.35,4.82-8.15,4.82-14.39s-1.56-11.03-4.68-14.39c-3.12-3.35-6.96-5.03-11.52-5.03s-8.52,1.65-11.59,4.96c-3.07,3.31-4.61,8.12-4.61,14.46s1.51,11.03,4.54,14.39c3.02,3.35,6.82,5.03,11.38,5.03s8.45-1.68,11.66-5.03"/>
    <path class="cls-2" d="M266.73,196.94c4.19-2.47,8.84-3.7,13.97-3.7v25.28h-6.57c-5.96,0-10.43,1.28-13.41,3.84-2.98,2.56-4.47,7.05-4.47,13.48v36.17h-23.88v-77.93h23.88v12.99c2.79-4.28,6.29-7.66,10.48-10.13"/>
    <rect class="cls-1" width="1170" height="2532"/>
    <rect class="cls-1" width="1170" height="2532"/>
  </g>
</svg>