<?xml version="1.0" encoding="UTF-8"?>
<svg id="Capa_2" data-name="Capa 2" xmlns="http://www.w3.org/2000/svg" viewBox="0 0 1170 2532">
  <defs>
    <style>
      .cls-1 {
        fill: none;
      }

      .cls-1, .cls-2 {
        stroke-width: 0px;
      }

      .cls-2 {
        fill: #fff;
      }
    </style>
  </defs>
  <g id="Capa_1-2" data-name="Capa 1">
    <path class="cls-2" d="M124.41,230.18c3.44,4.42,5.17,9.48,5.17,15.15,0,8.2-2.86,14.69-8.59,19.48-5.73,4.8-13.71,7.19-23.95,7.19h-45.67v-98.05h44.13c9.96,0,17.76,2.28,23.39,6.84,5.63,4.56,8.45,10.75,8.45,18.58,0,5.77-1.51,10.57-4.54,14.39-3.03,3.82-7.05,6.47-12.08,7.96,5.68,1.21,10.24,4.03,13.69,8.45M75.25,213.63h15.64c3.91,0,6.91-.86,9.01-2.58,2.09-1.72,3.14-4.26,3.14-7.61s-1.05-5.91-3.14-7.68c-2.1-1.77-5.1-2.65-9.01-2.65h-15.64v20.53ZM102.13,250.01c2.19-1.82,3.28-4.45,3.28-7.89s-1.14-6.15-3.42-8.1c-2.28-1.96-5.42-2.93-9.43-2.93h-17.32v21.65h17.6c4,0,7.1-.91,9.29-2.72"/>
    <path class="cls-2" d="M158.28,268.24c-6.1-3.26-10.89-7.91-14.39-13.97-3.49-6.05-5.24-13.13-5.24-21.23s1.77-15.06,5.31-21.16c3.54-6.1,8.38-10.78,14.53-14.04,6.15-3.26,13.03-4.89,20.67-4.89s14.53,1.63,20.67,4.89c6.15,3.26,10.99,7.94,14.52,14.04,3.54,6.1,5.31,13.15,5.31,21.16s-1.79,15.06-5.38,21.16c-3.59,6.1-8.47,10.78-14.66,14.04-6.19,3.26-13.11,4.89-20.74,4.89s-14.5-1.63-20.6-4.89M190.54,247.43c3.21-3.35,4.82-8.15,4.82-14.39s-1.56-11.03-4.68-14.39c-3.12-3.35-6.96-5.03-11.52-5.03s-8.52,1.65-11.59,4.96c-3.07,3.31-4.61,8.12-4.61,14.46s1.51,11.03,4.54,14.39c3.02,3.35,6.82,5.03,11.38,5.03s8.45-1.68,11.66-5.03"/>
    <path class="cls-2" d="M266.73,196.94c4.19-2.47,8.84-3.7,13.97-3.7v25.28h-6.57c-5.96,0-10.43,1.28-13.41,3.84-2.98,2.56-4.47,7.05-4.47,13.48v36.17h-23.88v-77.93h23.88v12.99c2.79-4.28,6.29-7.66,10.48-10.13"/>
    <path class="cls-2" d="M305.7,269.64c-5.31-2.33-9.5-5.52-12.57-9.57-3.07-4.05-4.8-8.59-5.17-13.62h23.6c.28,2.7,1.54,4.89,3.77,6.56,2.23,1.68,4.98,2.51,8.24,2.51,2.98,0,5.28-.58,6.91-1.75,1.63-1.16,2.44-2.68,2.44-4.54,0-2.23-1.17-3.89-3.49-4.96-2.33-1.07-6.1-2.26-11.31-3.56-5.59-1.3-10.24-2.68-13.97-4.12-3.73-1.44-6.94-3.72-9.64-6.84-2.7-3.12-4.05-7.33-4.05-12.64,0-4.47,1.23-8.54,3.7-12.22,2.47-3.68,6.1-6.59,10.89-8.73,4.8-2.14,10.5-3.21,17.11-3.21,9.78,0,17.48,2.42,23.12,7.26,5.63,4.84,8.87,11.27,9.71,19.27h-22.07c-.37-2.7-1.56-4.84-3.56-6.42-2-1.58-4.63-2.38-7.89-2.38-2.79,0-4.94.54-6.42,1.61-1.49,1.07-2.23,2.54-2.23,4.4,0,2.23,1.19,3.91,3.56,5.03,2.37,1.12,6.07,2.23,11.1,3.35,5.77,1.49,10.48,2.96,14.11,4.4,3.63,1.44,6.82,3.77,9.57,6.98,2.75,3.21,4.17,7.52,4.26,12.92,0,4.56-1.28,8.64-3.84,12.22-2.56,3.59-6.24,6.4-11.03,8.45-4.8,2.05-10.36,3.07-16.69,3.07-6.8,0-12.85-1.16-18.16-3.49"/>
    <path class="cls-2" d="M384.96,268.24c-6.1-3.26-10.89-7.91-14.39-13.97-3.49-6.05-5.24-13.13-5.24-21.23s1.77-15.06,5.31-21.16c3.54-6.1,8.38-10.78,14.52-14.04,6.15-3.26,13.04-4.89,20.67-4.89s14.53,1.63,20.67,4.89c6.15,3.26,10.99,7.94,14.52,14.04,3.54,6.1,5.31,13.15,5.31,21.16s-1.79,15.06-5.38,21.16c-3.59,6.1-8.47,10.78-14.67,14.04-6.19,3.26-13.11,4.89-20.74,4.89s-14.5-1.63-20.6-4.89M417.22,247.43c3.21-3.35,4.82-8.15,4.82-14.39s-1.56-11.03-4.68-14.39c-3.12-3.35-6.96-5.03-11.52-5.03s-8.52,1.65-11.59,4.96c-3.07,3.31-4.61,8.12-4.61,14.46s1.51,11.03,4.54,14.39c3.02,3.35,6.82,5.03,11.38,5.03s8.45-1.68,11.66-5.03"/>
    <path class="cls-2" d="M503.12,196.31c4.14,2.23,7.33,5.17,9.57,8.8v-11.03h23.88v77.8c0,7.17-1.42,13.66-4.26,19.48-2.84,5.82-7.17,10.45-12.99,13.9-5.82,3.44-13.06,5.17-21.72,5.17-11.55,0-20.9-2.72-28.07-8.17-7.17-5.45-11.27-12.83-12.29-22.14h23.6c.74,2.98,2.51,5.33,5.31,7.05,2.79,1.72,6.24,2.58,10.34,2.58,4.93,0,8.87-1.42,11.8-4.26,2.93-2.84,4.4-7.38,4.4-13.62v-11.03c-2.33,3.63-5.54,6.59-9.64,8.87-4.1,2.28-8.89,3.42-14.39,3.42-6.43,0-12.25-1.65-17.46-4.96-5.22-3.3-9.34-8.01-12.36-14.11-3.03-6.1-4.54-13.15-4.54-21.16s1.51-15.04,4.54-21.09c3.02-6.05,7.14-10.71,12.36-13.97,5.21-3.26,11.03-4.89,17.46-4.89,5.49,0,10.31,1.12,14.46,3.35M507.73,218.94c-3.31-3.44-7.33-5.17-12.08-5.17s-8.78,1.7-12.08,5.1c-3.31,3.4-4.96,8.08-4.96,14.04s1.65,10.69,4.96,14.18c3.3,3.49,7.33,5.24,12.08,5.24s8.78-1.72,12.08-5.17c3.3-3.44,4.96-8.15,4.96-14.11s-1.65-10.66-4.96-14.11"/>
    <path class="cls-2" d="M553.68,211.81c3.03-6.05,7.15-10.71,12.36-13.97,5.21-3.26,11.03-4.89,17.46-4.89,5.49,0,10.31,1.12,14.46,3.35,4.14,2.23,7.33,5.17,9.57,8.8v-11.03h23.88v77.94h-23.88v-11.03c-2.33,3.63-5.57,6.56-9.71,8.8-4.14,2.24-8.96,3.35-14.46,3.35-6.33,0-12.11-1.65-17.32-4.96-5.22-3.3-9.34-8.01-12.36-14.11-3.03-6.1-4.54-13.15-4.54-21.16s1.51-15.04,4.54-21.09M602.56,218.94c-3.31-3.44-7.33-5.17-12.08-5.17s-8.78,1.7-12.08,5.1c-3.31,3.4-4.96,8.08-4.96,14.04s1.65,10.69,4.96,14.18c3.3,3.49,7.33,5.24,12.08,5.24s8.78-1.72,12.08-5.17c3.3-3.44,4.96-8.15,4.96-14.11s-1.65-10.66-4.96-14.11"/>
    <path class="cls-2" d="M658.53,152.76c-8.8,0-15.93,7.12-15.93,15.9s7.13,15.9,15.93,15.9,15.93-7.12,15.93-15.9-7.13-15.9-15.93-15.9M657.72,179.55c0,1.35-1.21,2.37-2.51,2.11-5.99-1.19-10.51-6.59-10.51-13.06s4.52-11.86,10.51-13.06c1.3-.26,2.51.75,2.51,2.11,0,1.03-.71,1.91-1.69,2.11-4.04.82-7.12,4.49-7.12,8.84s3.08,8.03,7.12,8.84c.98.2,1.69,1.08,1.69,2.11M652.03,168.6c0-3.62,2.94-6.56,6.58-6.56s6.58,2.94,6.58,6.56-2.94,6.56-6.58,6.56-6.58-2.94-6.58-6.56M661.85,181.66c-1.3.26-2.51-.75-2.51-2.11,0-1.03.71-1.91,1.69-2.11,4.04-.82,7.12-4.49,7.12-8.84s-3.08-8.03-7.12-8.84c-.98-.2-1.69-1.08-1.69-2.11,0-1.35,1.21-2.37,2.51-2.11,5.99,1.2,10.51,6.59,10.51,13.06s-4.52,11.87-10.51,13.06"/>
    <rect class="cls-1" width="1170" height="2532"/>
    <rect class="cls-1" width="1170" height="2532"/>
  </g>
</svg>