<?xml version="1.0" encoding="UTF-8"?>
<svg id="Capa_2" data-name="Capa 2" xmlns="http://www.w3.org/2000/svg" viewBox="0 0 1129.09 1127.09">
  <defs>
    <style>
      .cls-1 {
        fill: #fff;
      }
    </style>
  </defs>
  <g id="Capa_1-2" data-name="Capa 1">
    <g>
      <path class="cls-1" d="M1129.03,286.55C1119.9,129.06,984.48.8,826.58,0L300.84.34C141.34,1.67,7.18,132.47,0,291.5v545.08c7.53,155.65,135.49,283.85,291.49,290.51l549.04-.06c152.82-7.61,280.5-134.68,288.56-287.44l-.06-553.04ZM1032.06,835.53c-7.63,103.63-93.69,188.51-197.5,194.5H294.58c-105.75-6.44-192.09-93.61-197.55-199.45V296.5c5.84-110.47,99.24-199.14,209.84-199.16l512.75-.34c110.03-.9,204.65,85.68,212.44,195.56v542.98Z"/>
      <path class="cls-1" d="M565.68,257.04c-169.57,0-307.03,137.46-307.03,307.03s137.46,307.03,307.03,307.03,307.03-137.46,307.03-307.03-137.46-307.03-307.03-307.03ZM565.68,768.51c-112.37,0-203.46-91.09-203.46-203.46s91.09-203.46,203.46-203.46,203.46,91.09,203.46,203.46-91.09,203.46-203.46,203.46Z"/>
      <circle class="cls-1" cx="867.61" cy="261.9" r="64.68"/>
    </g>
  </g>
</svg>