<?xml version="1.0" encoding="UTF-8"?>
<svg id="Capa_2" data-name="Capa 2" xmlns="http://www.w3.org/2000/svg" viewBox="0 0 55.54 55.52">
  <defs>
    <style>
      .cls-1 {
        fill: #fff;
        stroke-width: 0px;
      }
    </style>
  </defs>
  <g id="Capa_1-2" data-name="Capa 1">
    <path class="cls-1" d="M35.29,38.67c2.05-1.89,3.32-3.82,6.5-3.11,3.01.89,6.07,1.66,9.08,2.54,1.82.53,2.71.78,3.63,2.58.75,1.46,1.28,4.94.92,6.52-.47,2.04-2.38,4.15-4.03,5.37-6.77,5.02-14.86,2.76-21.85-.45-5.29-2.42-9.84-5.95-14.02-9.96C7.46,34.42.77,25.15.04,13.58-.27,8.7,1.38,4.46,5.39,1.57,7.63-.04,8.93-.18,11.67.14c2.53.29,4.57.78,5.43,3.46.76,3.42,2.02,6.87,2.72,10.29.26,1.24.26,2.79-.56,3.84-1.06,1.35-2.59,2.57-3.7,3.89-1.35,1.61.1,3.17,1.07,4.49,3.4,4.64,7.84,9.16,12.5,12.54.6.43,1.32.98,1.96,1.33,2,1.1,2.84-.05,4.19-1.29"/>
  </g>
</svg>