<?xml version="1.0" encoding="UTF-8"?>
<svg id="Capa_2" data-name="Capa 2" xmlns="http://www.w3.org/2000/svg" viewBox="0 0 31.86 31.8">
  <defs>
    <style>
      .cls-1 {
        fill: #fff;
        stroke-width: 0px;
      }
    </style>
  </defs>
  <g id="Capa_1-2" data-name="Capa 1">
    <path class="cls-1" d="M15.93,0C7.13,0,0,7.12,0,15.9s7.13,15.9,15.93,15.9,15.93-7.12,15.93-15.9S24.73,0,15.93,0M15.12,26.8c0,1.35-1.21,2.37-2.51,2.11-5.99-1.19-10.51-6.59-10.51-13.06S6.63,3.98,12.61,2.78c1.3-.26,2.51.75,2.51,2.11,0,1.03-.71,1.91-1.69,2.11-4.04.82-7.12,4.49-7.12,8.84s3.08,8.03,7.12,8.84c.98.2,1.69,1.08,1.69,2.11M9.43,15.84c0-3.62,2.94-6.56,6.58-6.56s6.58,2.94,6.58,6.56-2.94,6.56-6.58,6.56-6.58-2.94-6.58-6.56M19.25,28.9c-1.3.26-2.51-.75-2.51-2.11,0-1.03.71-1.91,1.69-2.11,4.04-.82,7.12-4.49,7.12-8.84s-3.08-8.03-7.12-8.84c-.98-.2-1.69-1.08-1.69-2.11,0-1.35,1.21-2.37,2.51-2.11,5.99,1.2,10.51,6.59,10.51,13.06s-4.52,11.87-10.51,13.06"/>
  </g>
</svg>