<?xml version="1.0" encoding="UTF-8"?>
<svg id="Capa_2" data-name="Capa 2" xmlns="http://www.w3.org/2000/svg" viewBox="0 0 929.62 923.78">
  <g id="Capa_1-2" data-name="Capa 1">
    <g id="Grupo_1" data-name="Grupo 1">
      <path d="M263.63,460.35c0,105.6,83.33,191.77,187.06,195.56,2.51,2.1,6.74,156.97,10.02,157.63,2.24.45,4.69,106.26,4.69,108.6-40.03,3.09-81.55,0-121.32-10.71C146.17,858.06.5,677.02.5,461.89S146.17,65.72,344.08,12.35C383.85,1.64,425.37-1.45,465.4,1.64c0,2.34-2.45,107.51-4.69,107.96-3.24.66-7.44,153.07-9.93,155.13-103.78,3.78-187.14,89.99-187.14,195.62Z" style="fill: none; stroke: #1a1914; stroke-miterlimit: 10;"/>
      <path d="M665.99,463.43c0-105.66-83.39-194.9-187.19-198.68-2.48-2.04-6.66-154.06-9.88-154.71-2.24-.45-4.7-106.06-4.7-108.4,40.03-3.09,81.55,0,121.32,10.71,197.91,53.37,343.58,234.42,343.58,449.54s-145.67,396.17-343.58,449.54c-39.77,10.71-81.29,13.8-121.32,10.71,0-2.34,2.45-107.71,4.69-108.17,3.3-.67,7.55-155.96,10.07-158.08,103.7-3.78,187.02-86.9,187.02-192.47Z" style="fill: none; stroke: #1a1914; stroke-miterlimit: 10;"/>
    </g>
    <g id="Grupo_2" data-name="Grupo 2">
      <path d="M257.19,460.48c0,103.72,79.54,188.94,179.52,196.51,5.01,4.19,12.14,147.77,18.7,149.1,4.48.91,8.47,100.08,8.47,104.76-36.69,6.18-77.73,5.85-117.4-4.61C150.31,854.37,5.63,675.08,5.63,461.89S150.31,69.41,346.49,17.53c39.66-10.46,80.7-10.78,117.4-4.61,0,4.68-4,103.26-8.48,104.17-6.48,1.32-13.56,142.62-18.53,146.74-100.08,7.56-179.68,92.85-179.68,196.64Z" style="fill: none; stroke: #2d2c27; stroke-miterlimit: 10;"/>
      <path d="M672.43,463.3c0-103.84-79.65-191.93-179.78-199.49-4.96-4.08-11.99-145-18.44-146.31-4.48-.91-8.48-99.89-8.48-104.57,36.69-6.18,77.73-5.85,117.4,4.61,196.18,51.87,340.86,231.16,340.86,444.36s-144.67,392.48-340.86,444.36c-39.66,10.46-80.7,10.78-117.4,4.61,0-4.68,3.99-103.45,8.47-104.36,6.59-1.34,13.77-145.32,18.79-149.55,99.93-7.57,179.43-89.96,179.43-193.64Z" style="fill: none; stroke: #2d2c27; stroke-miterlimit: 10;"/>
    </g>
    <g id="Grupo_3" data-name="Grupo 3">
      <path d="M250.75,460.61c0,101.85,75.74,186.12,171.99,197.47,7.52,6.29,17.55,138.58,27.38,140.57,6.72,1.36,12.26,93.9,12.26,100.92-33.36,9.26-73.92,11.7-113.47,1.49C154.45,850.68,10.77,673.15,10.77,461.89S154.45,73.1,348.91,22.72c39.55-10.21,80.12-7.77,113.47,1.49,0,7.02-5.54,99.02-12.26,100.38-9.73,1.97-19.67,132.17-27.14,138.35-96.38,11.35-172.23,95.71-172.23,197.66Z" style="fill: none; stroke: #403f3b; stroke-miterlimit: 10;"/>
      <path d="M678.87,463.17c0-102.02-75.91-188.95-172.37-200.3-7.44-6.12-17.33-135.95-26.99-137.91-6.72-1.36-12.27-93.73-12.27-100.75,33.36-9.26,73.92-11.7,113.47-1.49,194.46,50.38,338.14,227.91,338.14,439.17s-143.68,388.79-338.14,439.17c-39.55,10.21-80.11,7.77-113.47-1.49,0-7.02,5.53-99.19,12.26-100.55,9.89-2.01,19.98-134.68,27.52-141.03,96.16-11.35,171.85-93.03,171.85-194.81Z" style="fill: none; stroke: #403f3b; stroke-miterlimit: 10;"/>
    </g>
    <g id="grupo_4" data-name="grupo 4">
      <path d="M244.32,460.74c0,99.97,71.95,183.29,164.45,198.42,10.02,8.38,22.95,129.39,36.06,132.04,8.96,1.82,16.04,87.72,16.04,97.07-30.02,12.35-70.1,17.55-109.55,7.6C158.59,846.99,15.9,671.22,15.9,461.89S158.59,76.79,351.32,27.9c39.44-9.95,79.53-4.75,109.55,7.6,0,9.36-7.09,94.78-16.05,96.59-12.97,2.63-25.78,121.71-35.74,129.96-92.68,15.13-164.77,98.57-164.77,198.69Z" style="fill: none; stroke: #53534e; stroke-miterlimit: 10;"/>
      <path d="M685.3,463.04c0-100.21-72.17-185.98-164.95-201.11-9.92-8.16-22.66-126.9-35.55-129.51-8.96-1.82-16.05-87.56-16.05-96.92,30.02-12.35,70.1-17.55,109.55-7.6,192.73,48.89,335.42,224.66,335.42,433.99s-142.68,385.1-335.42,433.98c-39.44,9.95-79.53,4.75-109.55-7.6,0-9.36,7.08-94.93,16.04-96.75,13.19-2.67,26.19-124.04,36.25-132.51,92.39-15.14,164.26-96.1,164.26-195.98Z" style="fill: none; stroke: #53534e; stroke-miterlimit: 10;"/>
    </g>
    <g id="Grupo_5" data-name="Grupo 5">
      <path d="M237.88,460.87c0,98.09,68.16,180.46,156.91,199.38,12.53,10.48,28.35,120.19,44.74,123.51,11.2,2.27,19.83,81.53,19.83,93.23-26.69,15.44-66.29,23.4-105.62,13.7C162.73,843.3,21.04,669.29,21.04,461.89S162.73,80.48,353.74,33.09c39.33-9.7,78.94-1.74,105.62,13.7,0,11.7-8.63,90.54-19.83,92.8-16.21,3.29-31.89,111.26-44.34,121.57-88.98,18.91-157.31,101.43-157.31,199.71Z" style="fill: none; stroke: #666662; stroke-miterlimit: 10;"/>
      <path d="M691.74,462.91c0-98.39-68.43-183.01-157.54-201.91-12.4-10.2-27.99-117.85-44.1-121.11-11.2-2.27-19.83-81.4-19.83-93.1,26.69-15.44,66.29-23.4,105.62-13.7,191.01,47.39,332.7,221.4,332.7,428.8s-141.69,381.41-332.7,428.8c-39.33,9.7-78.94,1.74-105.62-13.7,0-11.7,8.63-90.67,19.83-92.94,16.49-3.34,32.4-113.4,44.98-123.98,88.62-18.92,156.68-99.17,156.68-197.15Z" style="fill: none; stroke: #666662; stroke-miterlimit: 10;"/>
    </g>
    <g id="Grupo_6" data-name="Grupo 6">
      <path d="M231.44,460.99c0,96.22,64.36,177.63,149.38,200.33,15.03,12.57,33.76,111,53.42,114.98,13.44,2.72,23.61,75.35,23.61,89.39-23.35,18.53-62.47,29.26-101.7,19.8C166.87,839.6,26.17,667.35,26.17,461.89S166.87,84.17,356.15,38.27c39.22-9.45,78.35,1.28,101.7,19.8,0,14.04-10.17,86.29-23.62,89.02-19.45,3.94-38.01,100.8-52.94,113.17-85.28,22.69-149.85,104.29-149.85,200.73Z" style="fill: none; stroke: #797976; stroke-miterlimit: 10;"/>
      <path d="M698.18,462.79c0-96.57-64.69-180.03-150.13-202.72-14.88-12.24-33.33-108.8-52.66-112.71-13.44-2.72-23.62-75.23-23.62-89.27,23.35-18.53,62.48-29.26,101.7-19.8,189.28,45.9,329.98,218.15,329.98,423.61,0,205.47-140.7,377.72-329.98,423.61-39.22,9.45-78.35-1.28-101.7-19.8,0-14.04,10.17-86.41,23.61-89.14,19.78-4.01,38.61-102.76,53.71-115.46,84.85-22.7,149.09-102.23,149.09-198.32Z" style="fill: none; stroke: #797976; stroke-miterlimit: 10;"/>
    </g>
    <g id="Grupo_7" data-name="Grupo 7">
      <path d="M225,461.12c0,94.34,60.57,174.8,141.84,201.29,17.54,14.67,39.16,101.81,62.1,106.45,15.68,3.18,27.4,69.17,27.4,85.55-20.02,21.61-58.66,35.11-97.77,25.91C171.01,835.91,31.3,665.42,31.3,461.89S171.01,87.87,358.56,43.46c39.11-9.2,77.76,4.29,97.77,25.91,0,16.38-11.72,82.05-27.4,85.23-22.7,4.6-44.12,90.35-61.54,104.78-81.58,26.48-142.39,107.15-142.39,201.75Z" style="fill: none; stroke: #8d8c89; stroke-miterlimit: 10;"/>
      <path d="M704.62,462.66c0-94.76-60.95-177.06-142.72-203.53-17.36-14.29-38.66-99.74-61.21-104.31-15.68-3.18-27.4-69.07-27.4-85.45,20.02-21.61,58.66-35.11,97.77-25.91,187.56,44.41,327.26,214.9,327.26,418.43s-139.7,374.02-327.26,418.43c-39.11,9.2-77.76-4.29-97.77-25.91,0-16.38,11.72-82.15,27.4-85.33,23.08-4.68,44.83-92.12,62.43-106.94,81.08-26.49,141.51-105.3,141.51-199.49Z" style="fill: none; stroke: #8d8c89; stroke-miterlimit: 10;"/>
    </g>
    <g id="Grupo_8" data-name="Grupo 8">
      <path d="M218.57,461.25c0,92.47,62.68,159.85,134.3,202.24,22.49,13.31,44.57,92.61,70.78,97.93,17.92,3.63,31.18,62.99,31.18,81.71-16.68,24.7-54.84,40.96-93.85,32.01-185.83-42.91-324.54-211.64-324.54-413.24S175.15,91.56,360.98,48.65c39-8.95,77.17,7.31,93.85,32.01,0,18.72-13.26,77.81-31.18,81.44-25.94,5.26-47.85,83.29-70.15,96.39-72.05,42.32-134.93,110.01-134.93,202.77Z" style="fill: none; stroke: #a09f9d; stroke-miterlimit: 10;"/>
      <path d="M711.05,462.53c0-92.94-63.01-162.06-135.31-204.34-22.18-12.97-43.99-90.69-69.77-95.92-17.92-3.63-31.18-62.9-31.18-81.62,16.68-24.7,54.85-40.96,93.85-32.01,185.83,42.91,324.54,211.64,324.54,413.24s-138.71,370.33-324.54,413.24c-39,8.95-77.17-7.31-93.85-32.01,0-18.72,13.26-77.89,31.18-81.52,26.38-5.35,48.56-84.97,71.16-98.41,71.36-42.43,133.92-108.37,133.92-200.66Z" style="fill: none; stroke: #a09f9d; stroke-miterlimit: 10;"/>
    </g>
    <g id="Grupo_9" data-name="Grupo 9">
      <path d="M212.13,461.38c0,90.59,58.11,159.73,126.76,203.2,24.84,15.73,49.97,83.42,79.46,89.4,20.16,4.09,34.97,56.81,34.97,77.86-13.34,27.79-51.03,46.81-89.93,38.11-184.11-41.42-321.82-208.39-321.82-408.06S179.29,95.25,363.39,53.83c38.89-8.7,76.58,10.32,89.93,38.11,0,21.06-14.81,73.57-34.97,77.65-29.18,5.91-54.12,72.52-78.75,87.99-69.12,43.42-127.47,112.87-127.47,203.79Z" style="fill: none; stroke: #b3b2b1; stroke-miterlimit: 10;"/>
      <path d="M717.49,462.4c0-91.12-58.5-161.76-127.9-205.14-24.51-15.32-49.33-81.64-78.32-87.52-20.16-4.09-34.97-56.74-34.97-77.8,13.34-27.79,51.03-46.81,89.92-38.11,184.11,41.42,321.82,208.39,321.82,408.06s-137.71,366.64-321.82,408.06c-38.89,8.7-76.58-10.32-89.92-38.11,0-21.06,14.81-73.63,34.97-77.72,29.68-6.02,54.93-74.01,79.89-89.89,68.37-43.5,126.34-111.44,126.34-201.83Z" style="fill: none; stroke: #b3b2b1; stroke-miterlimit: 10;"/>
    </g>
    <g id="Grupo_10" data-name="Grupo 10">
      <path d="M205.69,461.51c0,88.71,53.34,159.47,119.22,204.15,27.03,18.33,55.37,74.23,88.14,80.87,22.4,4.54,42.4,50.91,38.75,74.02-5.07,32.06-47.22,52.66-86,44.22-182.38-39.93-319.1-205.14-319.1-402.87S183.43,98.94,365.81,59.02c38.78-8.45,80.93,12.16,86,44.22,3.65,23.11-16.35,69.32-38.75,73.86-32.42,6.57-60.53,61.57-87.35,79.6-66.38,44.64-120.01,115.73-120.01,204.81Z" style="fill: none; stroke: #c6c6c4; stroke-miterlimit: 10;"/>
      <path d="M723.93,462.27c0-89.3-53.81-161.34-120.49-205.95-26.69-17.86-54.66-72.59-86.88-79.12-22.4-4.54-42.41-50.86-38.75-73.97,5.07-32.06,47.22-52.66,86-44.22,182.38,39.93,319.1,205.14,319.1,402.87s-136.72,362.95-319.1,402.87c-38.78,8.45-80.93-12.16-86-44.22-3.65-23.11,16.35-69.37,38.75-73.91,32.97-6.68,61.45-62.85,88.61-81.36,65.58-44.7,118.75-114.5,118.75-202.99Z" style="fill: none; stroke: #c6c6c4; stroke-miterlimit: 10;"/>
    </g>
    <g id="Grupo_11" data-name="Grupo 11">
      <path d="M199.25,461.63c0,86.84,48.38,159.08,111.69,205.11,29.06,21.13,60.78,65.03,96.82,72.34,24.64,4.99,45.03,44.56,42.54,70.18-3.35,34.45-43.4,58.51-82.07,50.32-180.66-38.43-316.38-201.89-316.38-397.69S187.57,102.63,368.22,64.2c38.67-8.19,78.72,15.87,82.07,50.32,2.49,25.62-17.9,65.08-42.54,70.07-35.67,7.23-67.11,50.43-95.95,71.21-63.84,46-112.56,118.59-112.56,205.83Z" style="fill: none; stroke: #d9d9d8; stroke-miterlimit: 10;"/>
      <path d="M730.37,462.15c0-87.49-48.91-160.78-113.07-206.76-28.71-20.58-59.99-63.53-95.43-70.72-24.64-4.99-45.03-44.53-42.54-70.15,3.35-34.45,43.4-58.51,82.08-50.32,180.66,38.43,316.38,201.89,316.38,397.69s-135.73,359.26-316.38,397.69c-38.67,8.19-78.72-15.87-82.08-50.32-2.49-25.62,17.9-65.11,42.54-70.11,36.27-7.35,68.15-51.51,97.34-72.84,62.99-46.04,111.17-117.57,111.17-204.16Z" style="fill: none; stroke: #d9d9d8; stroke-miterlimit: 10;"/>
    </g>
    <g id="Grupo_11-2" data-name="Grupo 11">
      <path d="M192.82,461.76c0,84.96,43.2,158.54,104.15,206.06,30.91,24.1,66.18,55.84,105.5,63.81,26.88,5.45,47.58,38.29,46.32,66.34-1.67,37.16-39.59,64.36-78.15,56.42-178.93-36.94-313.66-198.63-313.66-392.5S191.71,106.33,370.64,69.39c38.56-7.94,76.48,19.26,78.15,56.42,1.26,28.05-19.44,60.84-46.32,66.28-38.91,7.89-73.86,39.11-104.55,62.82-61.51,47.51-105.1,121.45-105.1,206.85Z" style="fill: none; stroke: #ececeb; stroke-miterlimit: 10;"/>
      <path d="M736.8,462.02c0-85.67-43.82-160.08-105.66-207.57-30.57-23.47-65.32-54.48-103.99-62.32-26.88-5.45-47.58-38.27-46.32-66.32,1.67-37.16,39.59-64.36,78.15-56.42,178.93,36.94,313.66,198.63,313.66,392.5s-134.73,355.56-313.66,392.5c-38.56,7.94-76.48-19.26-78.15-56.42-1.26-28.05,19.44-60.85,46.32-66.3,39.57-8.02,75.03-39.98,106.07-64.32,60.62-47.53,103.58-120.64,103.58-205.33Z" style="fill: none; stroke: #ececeb; stroke-miterlimit: 10;"/>
    </g>
    <g id="Grupo_12" data-name="Grupo 12">
      <path d="M62.11,461.89c0-191.94,133.74-351.87,310.94-387.32,38.45-7.69,74.23,22.39,74.23,62.52,0,30.42-20.99,56.59-50.11,62.5-119.51,24.22-210.79,133.19-210.79,262.3s91.29,238.08,210.79,262.3c29.12,5.9,50.11,32.08,50.11,62.5,0,40.14-35.77,70.22-74.23,62.53-177.21-35.45-310.94-195.38-310.94-387.32Z" style="fill: none; stroke: #fff; stroke-miterlimit: 10;"/>
      <path d="M867.51,461.89c0,191.94-133.74,351.87-310.94,387.32-38.45,7.69-74.23-22.39-74.23-62.53,0-30.42,20.99-56.59,50.11-62.5,119.51-24.22,210.79-133.19,210.79-262.3s-91.29-238.08-210.79-262.3c-29.12-5.9-50.11-32.08-50.11-62.5,0-40.14,35.77-70.21,74.23-62.52,177.21,35.44,310.94,195.38,310.94,387.32Z" style="fill: none; stroke: #fff; stroke-miterlimit: 10;"/>
    </g>
  </g>
</svg>