<?xml version="1.0" encoding="UTF-8"?>
<svg id="Capa_2" data-name="Capa 2" xmlns="http://www.w3.org/2000/svg" viewBox="0 0 55.98 38.2">
  <defs>
    <style>
      .cls-1 {
        fill: #fff;
        stroke-width: 0px;
      }
    </style>
  </defs>
  <g id="Capa_1-2" data-name="Capa 1">
    <path class="cls-1" d="M55.77,6.19c-.05-3.12-3.06-5.97-6.09-6.19L5.97.02c-1.94.46-3.89,1.62-4.91,3.38-.22.38-.9,2.05-.88,2.4.02.46,1.77,1.4,2.25,1.71,5.59,3.55,11.51,7.04,17.21,10.43,2.01,1.2,4.6,2.95,6.62,3.92,1.5.72,1.99.77,3.51.05l26-15.73ZM8.57,13.04c-2.57-1.54-5.2-3-7.71-4.65-.31-.16-.71-.17-.83.19l-.02,22.43c.03.84.85,4.15,1.66,4.4.23.07.34-.04.5-.15.46-.31,1.41-1.28,1.9-1.73,2.99-2.78,5.96-5.71,8.91-8.56,1.86-1.8,3.63-3.75,5.5-5.56.04-.25-.34-.52-.52-.65-2.51-1.91-6.57-4.04-9.39-5.73M55.98,8.3l-1.16.31c-5.13,3.69-11.63,6.45-16.69,10.09-.23.17-.45.34-.62.57l16.36,15.99c.67.53,1.52-1.04,1.69-1.55.06-.17.43-1.73.43-1.82V8.3ZM41.01,25.17c-.31-.3-.63-.79-1.01-1.15-1.32-1.27-2.72-2.47-4.02-3.77-.6-.15-5.05,3.06-6.15,3.47-3.79,1.39-6.44-2.33-9.68-3.44L3.16,36.9c.09.42,2.74,1.33,3.31,1.29l43.99-.08c.59-.3,2.76-.7,2.33-1.65-3.84-3.84-7.85-7.53-11.78-11.29"/>
  </g>
</svg>