<?xml version="1.0" encoding="UTF-8"?>
<svg id="Capa_2" data-name="Capa 2" xmlns="http://www.w3.org/2000/svg" viewBox="0 0 472.55 944.08">
  <defs>
    <style>
      .cls-1 {
        stroke: #797976;
      }

      .cls-1, .cls-2, .cls-3, .cls-4, .cls-5, .cls-6, .cls-7, .cls-8, .cls-9, .cls-10, .cls-11, .cls-12, .cls-13, .cls-14 {
        fill: none;
        stroke-miterlimit: 10;
      }

      .cls-2 {
        stroke: #8d8c89;
      }

      .cls-3 {
        stroke: #fff;
      }

      .cls-4 {
        stroke: #a09f9d;
      }

      .cls-5 {
        stroke: #ececeb;
      }

      .cls-6 {
        stroke: #2d2c27;
      }

      .cls-7 {
        stroke: #53534e;
      }

      .cls-8 {
        stroke: #666662;
      }

      .cls-9 {
        stroke: #d9d9d8;
      }

      .cls-10 {
        stroke: #403f3b;
      }

      .cls-11 {
        stroke: #070600;
      }

      .cls-12 {
        stroke: #1a1914;
      }

      .cls-13 {
        stroke: #b3b2b1;
      }

      .cls-14 {
        stroke: #c6c6c4;
      }
    </style>
  </defs>
  <g id="Capa_1-2" data-name="Capa 1">
    <path class="cls-11" d="M2.75,275.83c107.47,0,194.6,90.4,194.6,197.87S110.22,665.01,2.75,665.01L.5,943.58c260.42,0,471.54-211.12,471.54-471.54S260.93.5.5.5l2.24,275.33Z"/>
    <path class="cls-12" d="M203.78,473.58c0-105.66-83.39-194.9-187.19-198.68-2.48-2.04-6.66-154.06-9.88-154.71-2.24-.45-4.7-106.06-4.7-108.4,40.03-3.09,81.55,0,121.32,10.71,197.91,53.37,343.58,234.42,343.58,449.54s-145.67,396.17-343.58,449.54c-39.77,10.71-81.29,13.8-121.32,10.71,0-2.34,2.45-107.71,4.69-108.17,3.3-.67,7.55-155.96,10.07-158.08,103.7-3.78,187.02-86.9,187.02-192.47Z"/>
    <path class="cls-6" d="M210.22,473.45c0-103.84-79.65-191.93-179.78-199.49-4.96-4.08-11.99-145-18.44-146.31C7.53,126.74,3.52,27.76,3.52,23.08c36.69-6.18,77.73-5.85,117.4,4.61,196.18,51.87,340.86,231.16,340.86,444.36s-144.67,392.48-340.86,444.36c-39.66,10.46-80.7,10.78-117.4,4.61,0-4.68,3.99-103.45,8.47-104.36,6.59-1.34,13.77-145.32,18.79-149.55,99.93-7.57,179.43-89.96,179.43-193.64Z"/>
    <path class="cls-10" d="M216.66,473.32c0-102.02-75.91-188.95-172.37-200.3-7.44-6.12-17.33-135.95-26.99-137.91-6.72-1.36-12.27-93.73-12.27-100.75,33.36-9.26,73.92-11.7,113.47-1.49,194.46,50.38,338.14,227.91,338.14,439.17s-143.68,388.79-338.14,439.17c-39.55,10.21-80.11,7.77-113.47-1.49,0-7.02,5.53-99.19,12.26-100.55,9.89-2.01,19.98-134.68,27.52-141.03,96.16-11.35,171.85-93.03,171.85-194.81Z"/>
    <path class="cls-7" d="M223.1,473.19c0-100.21-72.17-185.98-164.95-201.11-9.92-8.16-22.66-126.9-35.55-129.51-8.96-1.82-16.05-87.56-16.05-96.92,30.02-12.35,70.1-17.55,109.55-7.6,192.73,48.89,335.42,224.66,335.42,433.99s-142.68,385.1-335.42,433.98c-39.44,9.95-79.53,4.75-109.55-7.6,0-9.36,7.08-94.93,16.04-96.75,13.19-2.67,26.19-124.04,36.25-132.51,92.39-15.14,164.26-96.1,164.26-195.98Z"/>
    <path class="cls-8" d="M229.53,473.07c0-98.39-68.43-183.01-157.54-201.91-12.4-10.2-27.99-117.85-44.1-121.11-11.2-2.27-19.83-81.4-19.83-93.1,26.69-15.44,66.29-23.4,105.62-13.7,191.01,47.39,332.7,221.4,332.7,428.8s-141.69,381.41-332.7,428.8c-39.33,9.7-78.94,1.74-105.62-13.7,0-11.7,8.63-90.67,19.83-92.94,16.49-3.34,32.4-113.4,44.98-123.98,88.62-18.92,156.68-99.17,156.68-197.15Z"/>
    <path class="cls-1" d="M235.97,472.94c0-96.57-64.69-180.03-150.13-202.72-14.88-12.24-33.33-108.8-52.66-112.71-13.44-2.72-23.62-75.23-23.62-89.27,23.35-18.53,62.48-29.26,101.7-19.8,189.28,45.9,329.98,218.15,329.98,423.61,0,205.47-140.7,377.72-329.98,423.61-39.22,9.45-78.35-1.28-101.7-19.8,0-14.04,10.17-86.41,23.61-89.14,19.78-4.01,38.61-102.76,53.71-115.46,84.85-22.7,149.09-102.23,149.09-198.32Z"/>
    <path class="cls-2" d="M242.41,472.81c0-94.76-60.95-177.06-142.72-203.53-17.36-14.29-38.66-99.74-61.21-104.31-15.68-3.18-27.4-69.07-27.4-85.45,20.02-21.61,58.66-35.11,97.77-25.91,187.56,44.41,327.26,214.9,327.26,418.43s-139.7,374.02-327.26,418.43c-39.11,9.2-77.76-4.29-97.77-25.91,0-16.38,11.72-82.15,27.4-85.33,23.08-4.68,44.83-92.12,62.43-106.94,81.08-26.49,141.51-105.3,141.51-199.49Z"/>
    <path class="cls-4" d="M248.85,472.68c0-92.94-63.01-162.06-135.31-204.34-22.18-12.97-43.99-90.69-69.77-95.92-17.92-3.63-31.18-62.9-31.18-81.62,16.68-24.7,54.85-40.96,93.85-32.01,185.83,42.91,324.54,211.64,324.54,413.24s-138.71,370.33-324.54,413.24c-39,8.95-77.17-7.31-93.85-32.01,0-18.72,13.26-77.89,31.18-81.52,26.38-5.35,48.56-84.97,71.16-98.41,71.36-42.43,133.92-108.37,133.92-200.66Z"/>
    <path class="cls-13" d="M255.28,472.55c0-91.12-58.5-161.76-127.9-205.14-24.51-15.32-49.33-81.64-78.32-87.52-20.16-4.09-34.97-56.74-34.97-77.8,13.34-27.79,51.03-46.81,89.92-38.11,184.11,41.42,321.82,208.39,321.82,408.06s-137.71,366.64-321.82,408.06c-38.89,8.7-76.58-10.32-89.92-38.11,0-21.06,14.81-73.63,34.97-77.72,29.68-6.02,54.93-74.01,79.89-89.89,68.37-43.5,126.34-111.44,126.34-201.83Z"/>
    <path class="cls-14" d="M261.72,472.43c0-89.3-53.81-161.34-120.49-205.95-26.69-17.86-54.66-72.59-86.88-79.12-22.4-4.54-42.41-50.86-38.75-73.97,5.07-32.06,47.22-52.66,86-44.22,182.38,39.93,319.1,205.14,319.1,402.87s-136.72,362.95-319.1,402.87c-38.78,8.45-80.93-12.16-86-44.22-3.65-23.11,16.35-69.37,38.75-73.91,32.97-6.68,61.45-62.85,88.61-81.36,65.58-44.7,118.75-114.5,118.75-202.99Z"/>
    <path class="cls-9" d="M268.16,472.3c0-87.49-48.91-160.78-113.07-206.76-28.71-20.58-59.99-63.53-95.43-70.72-24.64-4.99-45.03-44.53-42.54-70.15,3.35-34.45,43.4-58.51,82.08-50.32,180.66,38.43,316.38,201.89,316.38,397.69s-135.73,359.26-316.38,397.69c-38.67,8.19-78.72-15.87-82.08-50.32-2.49-25.62,17.9-65.11,42.54-70.11,36.27-7.35,68.15-51.51,97.34-72.84,62.99-46.04,111.17-117.57,111.17-204.16Z"/>
    <path class="cls-5" d="M274.6,472.17c0-85.67-43.82-160.08-105.66-207.57-30.57-23.47-65.32-54.48-103.99-62.32-26.88-5.45-47.58-38.27-46.32-66.32,1.67-37.16,39.59-64.36,78.15-56.42,178.93,36.94,313.66,198.63,313.66,392.5s-134.73,355.56-313.66,392.5c-38.56,7.94-76.48-19.26-78.15-56.42-1.26-28.05,19.44-60.85,46.32-66.3,39.57-8.02,75.03-39.98,106.07-64.32,60.62-47.53,103.58-120.64,103.58-205.33Z"/>
    <path class="cls-3" d="M405.3,472.04c0,191.94-133.74,351.87-310.94,387.32-38.45,7.69-74.23-22.39-74.23-62.53,0-30.42,20.99-56.59,50.11-62.5,119.51-24.22,210.79-133.19,210.79-262.3S189.75,233.97,70.24,209.75c-29.12-5.9-50.11-32.08-50.11-62.5,0-40.14,35.77-70.21,74.23-62.52,177.21,35.44,310.94,195.38,310.94,387.32Z"/>
  </g>
</svg>