<?xml version="1.0" encoding="UTF-8"?>
<svg id="Capa_2" data-name="Capa 2" xmlns="http://www.w3.org/2000/svg" viewBox="0 0 472.55 944.08">
  <defs>
    <style>
      .cls-1 {
        stroke: #797976;
      }

      .cls-1, .cls-2, .cls-3, .cls-4, .cls-5, .cls-6, .cls-7, .cls-8, .cls-9, .cls-10, .cls-11, .cls-12, .cls-13, .cls-14 {
        fill: none;
        stroke-miterlimit: 10;
      }

      .cls-2 {
        stroke: #8d8c89;
      }

      .cls-3 {
        stroke: #fff;
      }

      .cls-4 {
        stroke: #a09f9d;
      }

      .cls-5 {
        stroke: #ececeb;
      }

      .cls-6 {
        stroke: #2d2c27;
      }

      .cls-7 {
        stroke: #53534e;
      }

      .cls-8 {
        stroke: #666662;
      }

      .cls-9 {
        stroke: #d9d9d8;
      }

      .cls-10 {
        stroke: #403f3b;
      }

      .cls-11 {
        stroke: #070600;
      }

      .cls-12 {
        stroke: #1a1914;
      }

      .cls-13 {
        stroke: #b3b2b1;
      }

      .cls-14 {
        stroke: #c6c6c4;
      }
    </style>
  </defs>
  <g id="Capa_1-2" data-name="Capa 1">
    <path class="cls-11" d="M469.8,664.98c-107.48,0-194.6-87.13-194.6-194.6s87.12-194.6,194.6-194.6L472.04.5C211.62.5.5,211.62.5,472.04s211.12,471.54,471.54,471.54l-2.24-278.6Z"/>
    <path class="cls-12" d="M268.76,470.51c0,105.6,83.33,191.77,187.06,195.56,2.51,2.1,6.74,156.97,10.02,157.63,2.24.45,4.69,106.26,4.69,108.6-40.03,3.09-81.55,0-121.32-10.71C151.3,868.22,5.63,687.17,5.63,472.04S151.3,75.87,349.21,22.5c39.77-10.71,81.29-13.8,121.32-10.71,0,2.34-2.45,107.51-4.69,107.96-3.24.66-7.44,153.07-9.93,155.13-103.78,3.78-187.14,89.99-187.14,195.62Z"/>
    <path class="cls-6" d="M262.33,470.63c0,103.72,79.54,188.94,179.52,196.51,5.01,4.19,12.14,147.77,18.7,149.1,4.48.91,8.47,100.08,8.47,104.76-36.69,6.18-77.73,5.85-117.4-4.61C155.44,864.52,10.77,685.24,10.77,472.04S155.44,79.56,351.63,27.68c39.66-10.46,80.7-10.78,117.4-4.61,0,4.68-4,103.26-8.48,104.17-6.48,1.32-13.56,142.62-18.53,146.74-100.08,7.56-179.68,92.85-179.68,196.64Z"/>
    <path class="cls-10" d="M255.89,470.76c0,101.85,75.74,186.12,171.99,197.47,7.52,6.29,17.55,138.58,27.38,140.57,6.72,1.36,12.26,93.9,12.26,100.92-33.36,9.26-73.92,11.7-113.47,1.49C159.58,860.83,15.9,683.3,15.9,472.04S159.58,83.25,354.04,32.87c39.55-10.21,80.12-7.77,113.47,1.49,0,7.02-5.54,99.02-12.26,100.38-9.73,1.97-19.67,132.17-27.14,138.35-96.38,11.35-172.23,95.71-172.23,197.66Z"/>
    <path class="cls-7" d="M249.45,470.89c0,99.97,71.95,183.29,164.45,198.42,10.02,8.38,22.95,129.39,36.06,132.04,8.96,1.82,16.04,87.72,16.04,97.07-30.02,12.35-70.1,17.55-109.55,7.6C163.72,857.14,21.04,681.37,21.04,472.04S163.72,86.94,356.45,38.06c39.44-9.95,79.53-4.75,109.55,7.6,0,9.36-7.09,94.78-16.05,96.59-12.97,2.63-25.78,121.71-35.74,129.96-92.68,15.13-164.77,98.57-164.77,198.69Z"/>
    <path class="cls-8" d="M243.01,471.02c0,98.09,68.16,180.46,156.91,199.38,12.53,10.48,28.35,120.19,44.74,123.51,11.2,2.27,19.83,81.53,19.83,93.23-26.69,15.44-66.29,23.4-105.62,13.7C167.86,853.45,26.17,679.44,26.17,472.04S167.86,90.63,358.87,43.24c39.33-9.7,78.94-1.74,105.62,13.7,0,11.7-8.63,90.54-19.83,92.8-16.21,3.29-31.89,111.26-44.34,121.57-88.98,18.91-157.31,101.43-157.31,199.71Z"/>
    <path class="cls-1" d="M236.58,471.15c0,96.22,64.36,177.63,149.38,200.33,15.03,12.57,33.76,111,53.42,114.98,13.44,2.72,23.61,75.35,23.61,89.39-23.35,18.53-62.47,29.26-101.7,19.8C172,849.76,31.31,677.51,31.31,472.04S172,94.33,361.28,48.43c39.22-9.45,78.35,1.28,101.7,19.8,0,14.04-10.17,86.29-23.62,89.02-19.45,3.94-38.01,100.8-52.94,113.17-85.28,22.69-149.85,104.29-149.85,200.73Z"/>
    <path class="cls-2" d="M230.14,471.27c0,94.34,60.57,174.8,141.84,201.29,17.54,14.67,39.16,101.81,62.1,106.45,15.68,3.18,27.4,69.17,27.4,85.55-20.02,21.61-58.66,35.11-97.77,25.91-187.56-44.41-327.26-214.9-327.26-418.43S176.14,98.02,363.7,53.61c39.11-9.2,77.76,4.29,97.77,25.91,0,16.38-11.72,82.05-27.4,85.23-22.7,4.6-44.12,90.35-61.54,104.78-81.58,26.48-142.39,107.15-142.39,201.75Z"/>
    <path class="cls-4" d="M223.7,471.4c0,92.47,62.68,159.85,134.3,202.24,22.49,13.31,44.57,92.61,70.78,97.93,17.92,3.63,31.18,62.99,31.18,81.71-16.68,24.7-54.84,40.96-93.85,32.01-185.83-42.91-324.54-211.64-324.54-413.24S180.28,101.71,366.11,58.8c39-8.95,77.17,7.31,93.85,32.01,0,18.72-13.26,77.81-31.18,81.44-25.94,5.26-47.85,83.29-70.15,96.39-72.05,42.32-134.93,110.01-134.93,202.77Z"/>
    <path class="cls-13" d="M217.26,471.53c0,90.59,58.11,159.73,126.76,203.2,24.84,15.73,49.97,83.42,79.46,89.4,20.16,4.09,34.97,56.81,34.97,77.86-13.34,27.79-51.03,46.81-89.93,38.11-184.11-41.42-321.82-208.39-321.82-408.06S184.42,105.4,368.53,63.98c38.89-8.7,76.58,10.32,89.93,38.11,0,21.06-14.81,73.57-34.97,77.65-29.18,5.91-54.12,72.52-78.75,87.99-69.12,43.42-127.47,112.87-127.47,203.79Z"/>
    <path class="cls-14" d="M210.83,471.66c0,88.71,53.34,159.47,119.22,204.15,27.03,18.33,55.37,74.23,88.14,80.87,22.4,4.54,42.4,50.91,38.75,74.02-5.07,32.06-47.22,52.66-86,44.22-182.38-39.93-319.1-205.14-319.1-402.87S188.56,109.09,370.94,69.17c38.78-8.45,80.93,12.16,86,44.22,3.65,23.11-16.35,69.32-38.75,73.86-32.42,6.57-60.53,61.57-87.35,79.6-66.38,44.64-120.01,115.73-120.01,204.81Z"/>
    <path class="cls-9" d="M204.39,471.79c0,86.84,48.38,159.08,111.69,205.11,29.06,21.13,60.78,65.03,96.82,72.34,24.64,4.99,45.03,44.56,42.54,70.18-3.35,34.45-43.4,58.51-82.07,50.32-180.66-38.43-316.38-201.89-316.38-397.69S192.7,112.79,373.36,74.35c38.67-8.19,78.72,15.87,82.07,50.32,2.49,25.62-17.9,65.08-42.54,70.07-35.67,7.23-67.11,50.43-95.95,71.21-63.84,46-112.56,118.59-112.56,205.83Z"/>
    <path class="cls-5" d="M197.95,471.91c0,84.96,43.2,158.54,104.15,206.06,30.91,24.1,66.18,55.84,105.5,63.81,26.88,5.45,47.58,38.29,46.32,66.34-1.67,37.16-39.59,64.36-78.15,56.42-178.93-36.94-313.66-198.63-313.66-392.5S196.84,116.48,375.77,79.54c38.56-7.94,76.48,19.26,78.15,56.42,1.26,28.05-19.44,60.84-46.32,66.28-38.91,7.89-73.86,39.11-104.55,62.82-61.51,47.51-105.1,121.45-105.1,206.85Z"/>
    <path class="cls-3" d="M67.24,472.04c0-191.94,133.74-351.87,310.94-387.32,38.45-7.69,74.23,22.39,74.23,62.52,0,30.42-20.99,56.59-50.11,62.5-119.51,24.22-210.79,133.19-210.79,262.3s91.29,238.08,210.79,262.3c29.12,5.9,50.11,32.08,50.11,62.5,0,40.14-35.77,70.22-74.23,62.53-177.21-35.45-310.94-195.38-310.94-387.32Z"/>
  </g>
</svg>